<?xml version="1.0" encoding="UTF-8"?>
<svg width="41px" height="36px" viewBox="0 0 41 36" version="1.1" xmlns="http://www.w3.org/2000/svg" xmlns:xlink="http://www.w3.org/1999/xlink">
    <!-- Generator: Sketch 52.5 (67469) - http://www.bohemiancoding.com/sketch -->
    <title>Group 9</title>
    <desc>Created with Sketch.</desc>
    <defs>
        <linearGradient x1="5.6912963%" y1="1.24864523%" x2="57.9027191%" y2="100%" id="linearGradient-1">
            <stop stop-color="#63C4FF" offset="0%"></stop>
            <stop stop-color="#4D97FF" offset="100%"></stop>
        </linearGradient>
        <path d="M34.3125577,18.8991847 L19.2663328,3.74035454 C18.2873064,2.75321515 16.7131688,2.75321515 15.7332873,3.74035454 L0.687062444,18.8991847 C-0.77249918,20.3698566 0.247569371,22.9079656 2.29882206,22.9079656 L3.23509621,22.9079656 L3.23509621,33.0368362 C3.23509621,34.6663581 4.54074975,36 6.13711856,36 L27.6945103,36 C29.290024,36 30.5965326,34.6663581 30.5965326,33.0368362 L30.5965326,22.9079656 L32.7007981,22.9079656 C34.7520508,22.9079656 35.7729744,20.3698566 34.3125577,18.8991847" id="path-2"></path>
        <linearGradient x1="-10.021857%" y1="0%" x2="86.2888903%" y2="100%" id="linearGradient-4">
            <stop stop-color="#FFFFFF" stop-opacity="0.636775362" offset="0%"></stop>
            <stop stop-color="#BCD9FF" offset="100%"></stop>
        </linearGradient>
        <linearGradient x1="20.6310676%" y1="14.4086523%" x2="59.7089389%" y2="100%" id="linearGradient-5">
            <stop stop-color="#FFFFFF" stop-opacity="0.636775362" offset="0%"></stop>
            <stop stop-color="#D6E4FF" offset="100%"></stop>
        </linearGradient>
    </defs>
    <g id="Page-1" stroke="none" stroke-width="1" fill="none" fill-rule="evenodd">
        <g id="GS-Cloud首页" transform="translate(-1186.000000, -139.000000)">
            <g id="Group-13" transform="translate(964.000000, 138.000000)">
                <g id="Group-9" transform="translate(222.000000, 1.000000)">
                    <g id="Group-3">
                        <g id="Fill-1">
                            <g id="Group-12">
                                <mask id="mask-3" fill="white">
                                    <use xlink:href="#path-2"></use>
                                </mask>
                                <use id="Mask" fill="url(#linearGradient-1)" xlink:href="#path-2"></use>
                                <path d="M41.2929165,15.8991847 L25.8167995,0.740354543 C24.8098009,-0.246784848 23.1906879,-0.246784848 22.1828098,0.740354543 L6.7066928,15.8991847 C5.20542941,17.3698566 6.25464278,19.9079656 8.36450269,19.9079656 L9.32752753,19.9079656 L9.32752753,30.0368362 C9.32752753,31.6663581 10.6704855,33 12.3124648,33 L34.485782,33 C36.1268819,33 37.4707193,31.6663581 37.4707193,30.0368362 L37.4707193,19.9079656 L39.6351066,19.9079656 C41.7449665,19.9079656 42.7950594,17.3698566 41.2929165,15.8991847" id="Fill-1" fill="url(#linearGradient-4)" style="mix-blend-mode: multiply;" opacity="0.6" mask="url(#mask-3)"></path>
                                <path d="M40.3125577,15.8991847 L25.2663328,0.740354543 C24.2873064,-0.246784848 22.7131688,-0.246784848 21.7332873,0.740354543 L6.68706244,15.8991847 C5.22750082,17.3698566 6.24756937,19.9079656 8.29882206,19.9079656 L9.23509621,19.9079656 L9.23509621,30.0368362 C9.23509621,31.6663581 10.5407498,33 12.1371186,33 L33.6945103,33 C35.290024,33 36.5965326,31.6663581 36.5965326,30.0368362 L36.5965326,19.9079656 L38.7007981,19.9079656 C40.7520508,19.9079656 41.7729744,17.3698566 40.3125577,15.8991847" id="Fill-1" fill="url(#linearGradient-5)" style="mix-blend-mode: multiply;"></path>
                                <rect id="Rectangle" fill="#FFFFFF" fill-rule="nonzero" x="10" y="20" width="4" height="4" rx="1.1"></rect>
                                <rect id="Rectangle-Copy-4" fill="#FFFFFF" fill-rule="nonzero" x="10" y="27" width="4" height="4" rx="1.1"></rect>
                                <rect id="Rectangle-Copy-5" fill="#FFFFFF" fill-rule="nonzero" x="17" y="27" width="4" height="4" rx="1.1"></rect>
                            </g>
                        </g>
                    </g>
                </g>
            </g>
        </g>
    </g>
</svg>