<?xml version="1.0" encoding="UTF-8"?>
<svg width="39px" height="37px" viewBox="0 0 39 37" version="1.1" xmlns="http://www.w3.org/2000/svg" xmlns:xlink="http://www.w3.org/1999/xlink">
    <!-- Generator: Sketch 52.5 (67469) - http://www.bohemiancoding.com/sketch -->
    <title>Group 10</title>
    <desc>Created with Sketch.</desc>
    <defs>
        <linearGradient x1="0%" y1="0%" x2="100%" y2="100%" id="linearGradient-1">
            <stop stop-color="#FFBF31" offset="0%"></stop>
            <stop stop-color="#FF9300" offset="100%"></stop>
        </linearGradient>
        <path d="M18.1781111,32.9156667 C26.5026667,32.0747778 33,25.047 33,16.5 C33,7.38711111 25.6128889,0 16.5,0 C7.38711111,0 0,7.38711111 0,16.5 C0,20.7521111 1.62188889,24.6155556 4.26311111,27.5415556 L2.94677778,31.4917778 C2.69988889,32.2336667 3.25233333,33 4.03455556,33 L18.1781111,32.9156667 Z" id="path-2"></path>
        <linearGradient x1="105.651244%" y1="100%" x2="18.1644696%" y2="0%" id="linearGradient-4">
            <stop stop-color="#FFE6C2" offset="0%"></stop>
            <stop stop-color="#FFFFFF" offset="100%"></stop>
        </linearGradient>
        <linearGradient x1="80.7678862%" y1="88.9221271%" x2="17.882055%" y2="0%" id="linearGradient-5">
            <stop stop-color="#FFE6C2" offset="0%"></stop>
            <stop stop-color="#FFFFFF" offset="100%"></stop>
        </linearGradient>
    </defs>
    <g id="Page-1" stroke="none" stroke-width="1" fill="none" fill-rule="evenodd">
        <g id="GS-Cloud首页" transform="translate(-1283.000000, -138.000000)">
            <g id="Group-13" transform="translate(964.000000, 138.000000)">
                <g id="Group-10" transform="translate(319.000000, 0.000000)">
                    <g id="Oval" transform="translate(0.000000, 4.000000)">
                        <mask id="mask-3" fill="white">
                            <use xlink:href="#path-2"></use>
                        </mask>
                        <use id="Mask" fill="url(#linearGradient-1)" xlink:href="#path-2"></use>
                        <circle fill="url(#linearGradient-4)" fill-rule="nonzero" style="mix-blend-mode: multiply;" opacity="0.8" mask="url(#mask-3)" cx="22.5" cy="12.5" r="16.5"></circle>
                    </g>
                    <circle id="Oval" fill="url(#linearGradient-5)" fill-rule="nonzero" style="mix-blend-mode: multiply;" opacity="0.800000012" cx="22.5" cy="16.5" r="16.5"></circle>
                    <path d="M20.2865797,22.2685947 L17.5946625,22.2685947 L17.5946625,21.121968 L20.2865797,21.121968 C21.034421,21.121968 21.632587,20.6234558 21.632587,19.9754386 C21.632587,19.3273484 21.034421,18.8288362 20.2865797,18.8288362 L18.093199,18.8288362 L20.8349188,16.1867458 C21.1838773,15.8876141 21.3334553,15.4888287 21.1838773,15.0899459 C21.034421,14.6911848 20.7352894,14.2923994 20.2367528,14.1926483 C19.7880675,14.0929945 19.289531,14.1926483 18.9405724,14.49178 L16.1988526,17.1338703 L13.6065648,14.49178 C13.0581284,14.0430946 12.210755,14.0430946 11.6622942,14.49178 C11.1139551,14.9404896 11.1139551,15.6882336 11.6622942,16.1368216 L14.3044819,18.8288362 L12.1110038,18.8288362 C11.6124916,18.8288362 11.1638793,19.0282167 10.9145745,19.4270021 C10.6653428,19.7759607 10.6653428,20.2246703 10.9145745,20.5736289 C11.1638793,20.9225874 11.6124916,21.1718922 12.1110038,21.1718922 L14.8528453,21.1718922 L14.8528453,22.3183973 L12.1110038,22.3183973 C11.3632599,22.3183973 10.7649965,22.8169338 10.7649965,23.465024 C10.7649965,24.1131142 11.3632599,24.6115291 12.1110038,24.6115291 L14.8528453,24.6115291 L14.8528453,26.9545851 C14.8528453,27.6026754 15.4510113,28.1012119 16.1988526,28.1012119 C16.9465723,28.1012119 17.5447382,27.6026754 17.5447382,26.9545851 L17.5447382,24.6115291 L20.2367528,24.6115291 C20.9844968,24.6115291 21.5827601,24.1131142 21.5827601,23.465024 C21.5827601,22.8169338 21.034421,22.2685947 20.2865797,22.2685947 Z" id="Fill-1" fill="#FFFFFF"></path>
                </g>
            </g>
        </g>
    </g>
</svg>