<?xml version="1.0" encoding="UTF-8"?>
<svg width="37px" height="34px" viewBox="0 0 37 34" version="1.1" xmlns="http://www.w3.org/2000/svg" xmlns:xlink="http://www.w3.org/1999/xlink">
    <!-- Generator: Sketch 52.5 (67469) - http://www.bohemiancoding.com/sketch -->
    <title>分组 2</title>
    <desc>Created with Sketch.</desc>
    <defs>
        <linearGradient x1="5.6912963%" y1="1.24864523%" x2="57.9027191%" y2="100%" id="linearGradient-1">
            <stop stop-color="#63C4FF" offset="0%"></stop>
            <stop stop-color="#4D97FF" offset="100%"></stop>
        </linearGradient>
        <path d="M26.4074074,30 L4.59259259,30 C2.06666667,30 0,27.9230769 0,25.3846154 L0,4.61538462 C0,2.07692308 2.06666667,0 4.59259259,0 L15.3484444,0 C16.1234444,0 16.8548148,0.361153846 17.329,0.976153846 L18.8985185,3.01384615 C19.1155185,3.29653846 19.4507778,3.46153846 19.8055556,3.46153846 L26.4074074,3.46153846 C28.9333333,3.46153846 31,5.53846154 31,8.07692308 L31,25.3846154 C31,27.9230769 28.9333333,30 26.4074074,30" id="path-2"></path>
        <linearGradient x1="17.1669804%" y1="-9.93529274%" x2="50%" y2="89.9007828%" id="linearGradient-4">
            <stop stop-color="#FFFFFF" stop-opacity="0.636775362" offset="0%"></stop>
            <stop stop-color="#C1DAFF" offset="100%"></stop>
        </linearGradient>
    </defs>
    <g id="Page-1" stroke="none" stroke-width="1" fill="none" fill-rule="evenodd">
        <g id="GS-Cloud首页" transform="translate(-964.000000, -228.000000)">
            <g id="分组-2" transform="translate(964.000000, 228.000000)">
                <g id="Fill-1" transform="translate(0.000000, 4.000000)">
                    <mask id="mask-3" fill="white">
                        <use xlink:href="#path-2"></use>
                    </mask>
                    <use id="Mask" fill="url(#linearGradient-1)" xlink:href="#path-2"></use>
                    <path d="M32.4074074,26 L10.5925926,26 C8.06666667,26 6,23.9230769 6,21.3846154 L6,0.615384615 C6,-1.92307692 8.06666667,-4 10.5925926,-4 L21.3484444,-4 C22.1234444,-4 22.8548148,-3.63884615 23.329,-3.02384615 L24.8985185,-0.986153846 C25.1155185,-0.703461538 25.4507778,-0.538461538 25.8055556,-0.538461538 L32.4074074,-0.538461538 C34.9333333,-0.538461538 37,1.53846154 37,4.07692308 L37,21.3846154 C37,23.9230769 34.9333333,26 32.4074074,26" fill-opacity="0.6" fill="url(#linearGradient-4)" style="mix-blend-mode: multiply;" opacity="0.4" mask="url(#mask-3)"></path>
                </g>
                <path d="M32.4074074,30 L10.5925926,30 C8.06666667,30 6,27.9230769 6,25.3846154 L6,4.61538462 C6,2.07692308 8.06666667,0 10.5925926,0 L21.3484444,0 C22.1234444,0 22.8548148,0.361153846 23.329,0.976153846 L24.8985185,3.01384615 C25.1155185,3.29653846 25.4507778,3.46153846 25.8055556,3.46153846 L32.4074074,3.46153846 C34.9333333,3.46153846 37,5.53846154 37,8.07692308 L37,25.3846154 C37,27.9230769 34.9333333,30 32.4074074,30" id="Fill-1" fill="url(#linearGradient-4)" style="mix-blend-mode: multiply;" opacity="0.8"></path>
                <path d="M7.40003516,20.8964974 L10.01,20.8964974 C10.2799648,20.8964974 10.5499648,20.7931295 10.73,20.4827832 L12.4400352,17.8965647 L15.23,23.4827159 C15.4100352,23.7930621 15.6800352,24 15.9500352,24 L16.0399648,24 C16.3099648,24 16.5799648,23.8966321 16.76,23.5862859 L19.6400703,19.3448471 L20.4500352,21.0000673 C20.6300703,21.3104136 20.9000352,21.5171898 21.26,21.5171898 L23.5999297,21.5171898 C24.1400703,21.5171898 24.5,21.1034353 24.5,20.4827832 C24.5,19.8621312 24.1400703,19.4482554 23.5999297,19.4482554 L21.7999648,19.4482554 L20.5399648,16.9654048 C20.3599297,16.6550586 20.0899297,16.4482824 19.8199648,16.4482824 C19.5499648,16.4482824 19.1900352,16.5516907 19.01,16.8620369 L16.1300703,21.1034353 L13.3399297,15.5171225 C13.1600352,15.2068167 12.8900703,15 12.6200703,15 C12.3499297,15 11.99,15.1034083 11.8099648,15.4137546 L9.47,18.827563 L7.40003516,18.827563 C6.85992969,18.827563 6.5,19.2412771 6.5,19.8621312 C6.5,20.4827832 6.95003516,20.8964974 7.40003516,20.8964974 Z" id="Fill-4" fill="#FFFFFF"></path>
            </g>
        </g>
    </g>
</svg>