<?xml version="1.0" encoding="UTF-8"?>
<svg width="37px" height="37px" viewBox="0 0 37 37" version="1.1" xmlns="http://www.w3.org/2000/svg" xmlns:xlink="http://www.w3.org/1999/xlink">
    <!-- Generator: Sketch 52.5 (67469) - http://www.bohemiancoding.com/sketch -->
    <title>销售订单管理</title>
    <desc>Created with Sketch.</desc>
    <defs>
        <linearGradient x1="5.03111757%" y1="0%" x2="57.9027191%" y2="100%" id="linearGradient-1">
            <stop stop-color="#00D5FF" offset="0%"></stop>
            <stop stop-color="#2AB3FF" offset="100%"></stop>
        </linearGradient>
        <path d="M28.49272,30.2247366 L17.19632,36.5545082 C16.13736,37.1484973 14.86388,37.1484973 13.80492,36.5545082 L2.50852,30.2247366 C0.96348,29.3594193 0,27.680117 0,25.8541508 L0,8.96335253 C0,6.22318105 2.13652,4 4.77028,4 L26.23096,4 C28.86472,4 31,6.22318105 31,8.96335253 L31,25.8541508 C31,27.680117 30.03776,29.3594193 28.49272,30.2247366" id="path-2"></path>
        <linearGradient x1="5.03111757%" y1="0%" x2="57.9027191%" y2="100%" id="linearGradient-4">
            <stop stop-color="#FFFFFF" offset="0%"></stop>
            <stop stop-color="#C2E6FF" offset="100%"></stop>
        </linearGradient>
        <linearGradient x1="5.03111757%" y1="0%" x2="57.9027191%" y2="100%" id="linearGradient-5">
            <stop stop-color="#FFFFFF" offset="0%"></stop>
            <stop stop-color="#C2EAFF" offset="100%"></stop>
        </linearGradient>
    </defs>
    <g id="Page-1" stroke="none" stroke-width="1" fill="none" fill-rule="evenodd">
        <g id="GS-Cloud首页" transform="translate(-964.000000, -138.000000)">
            <g id="Group-13" transform="translate(964.000000, 138.000000)">
                <g id="销售订单管理">
                    <g id="Fill-1">
                        <g>
                            <g>
                                <mask id="mask-3" fill="white">
                                    <use xlink:href="#path-2"></use>
                                </mask>
                                <use id="Mask" fill="url(#linearGradient-1)" xlink:href="#path-2"></use>
                                <text id="59A1FF" mask="url(#mask-3)" font-family="PingFangSC-Regular, PingFang SC" font-size="14" font-weight="normal" line-spacing="20" fill="#000000" fill-opacity="0.85">
                                    <tspan x="33.116" y="13">59A1FF</tspan>
                                </text>
                                <text id="59A1FF" mask="url(#mask-3)" font-family="PingFangSC-Regular, PingFang SC" font-size="14" font-weight="normal" line-spacing="20" fill="#000000" fill-opacity="0.85">
                                    <tspan x="33.116" y="13">59A1FF</tspan>
                                </text>
                                <path d="M34.49272,26.2247366 L23.19632,32.5545082 C22.13736,33.1484973 20.86388,33.1484973 19.80492,32.5545082 L8.50852,26.2247366 C6.96348,25.3594193 6,23.680117 6,21.8541508 L6,4.96335253 C6,2.22318105 8.13652,0 10.77028,0 L32.23096,0 C34.86472,0 37,2.22318105 37,4.96335253 L37,21.8541508 C37,23.680117 36.03776,25.3594193 34.49272,26.2247366" fill="url(#linearGradient-4)" style="mix-blend-mode: multiply;" opacity="0.8" mask="url(#mask-3)"></path>
                                <path d="M34.49272,26.2247366 L23.19632,32.5545082 C22.13736,33.1484973 20.86388,33.1484973 19.80492,32.5545082 L8.50852,26.2247366 C6.96348,25.3594193 6,23.680117 6,21.8541508 L6,4.96335253 C6,2.22318105 8.13652,0 10.77028,0 L32.23096,0 C34.86472,0 37,2.22318105 37,4.96335253 L37,21.8541508 C37,23.680117 36.03776,25.3594193 34.49272,26.2247366" fill-opacity="0.8" fill="url(#linearGradient-5)" style="mix-blend-mode: multiply;"></path>
                                <rect id="Rectangle" fill="#FFFFFF" fill-rule="nonzero" x="7" y="13" width="3" height="3" rx="1.1"></rect>
                                <rect id="Rectangle" fill="#FFFFFF" fill-rule="nonzero" x="13" y="13" width="11" height="3" rx="1.1"></rect>
                                <rect id="Rectangle" fill="#FFFFFF" fill-rule="nonzero" x="7" y="20" width="3" height="3" rx="1.1"></rect>
                                <rect id="Rectangle" fill="#FFFFFF" fill-rule="nonzero" x="13" y="20" width="11" height="3" rx="1.1"></rect>
                            </g>
                        </g>
                    </g>
                </g>
            </g>
        </g>
    </g>
</svg>